<svg xmlns="http://www.w3.org/2000/svg" viewBox="0 0 24 24" id="Marine-Mammal-Turtle-1--Streamline-Ultimate.svg" height="40" width="40"><g id="Marine-Mammal-Turtle-1--Streamline-Ultimate.svg"><path d="M17.5 13.75c0 5 -4.5 7.5 -5.5 7.5s-5.5 -2.5 -5.5 -7.5c0 -3.59 2.46 -6.5 5.5 -6.5s5.5 2.91 5.5 6.5Z" fill="none" stroke="#fff" stroke-linecap="round" stroke-linejoin="round" stroke-width="1"></path><path d="m7.79 9.56 3.61 2.74a1 1 0 0 0 1.2 0l3.61 -2.74" fill="none" stroke="#fff" stroke-linecap="round" stroke-linejoin="round" stroke-width="1"></path><path d="M10.58 11.67 6.7 15.55" fill="none" stroke="#fff" stroke-linecap="round" stroke-linejoin="round" stroke-width="1"></path><path d="m13.42 11.67 3.88 3.88" fill="none" stroke="#fff" stroke-linecap="round" stroke-linejoin="round" stroke-width="1"></path><path d="M11.13 16.12 8.4 18.85" fill="none" stroke="#fff" stroke-linecap="round" stroke-linejoin="round" stroke-width="1"></path><path d="m12.87 16.12 2.73 2.73" fill="none" stroke="#fff" stroke-linecap="round" stroke-linejoin="round" stroke-width="1"></path><path d="m8.21 14 3.21 2.29a1 1 0 0 0 1.16 0L15.79 14" fill="none" stroke="#fff" stroke-linecap="round" stroke-linejoin="round" stroke-width="1"></path><path d="M13 7.36a4.76 4.76 0 0 1 0.75 -2.61 3 3 0 0 0 0.25 -1.2 2.84 2.84 0 0 0 -2 -2.8 2.84 2.84 0 0 0 -2 2.8 3 3 0 0 0 0.25 1.2 4.83 4.83 0 0 1 0.75 2.5v0.11" fill="none" stroke="#fff" stroke-linecap="round" stroke-linejoin="round" stroke-width="1"></path><path d="M15 8.29a3.94 3.94 0 0 1 3.52 -2c3.5 0 5 6 5 6A4.39 4.39 0 0 1 19 9.75" fill="none" stroke="#fff" stroke-linecap="round" stroke-linejoin="round" stroke-width="1"></path><path d="M9 8.29a3.94 3.94 0 0 0 -3.52 -2c-3.5 0 -5 6 -5 6A4.39 4.39 0 0 0 5 9.75" fill="none" stroke="#fff" stroke-linecap="round" stroke-linejoin="round" stroke-width="1"></path><path d="M7.09 16.75s-3.09 0.5 -3.09 3a4 4 0 0 0 2 3.5 6.92 6.92 0 0 0 1 -3.5" fill="none" stroke="#fff" stroke-linecap="round" stroke-linejoin="round" stroke-width="1"></path><path d="M16.91 16.75s3.09 0.5 3.09 3a4 4 0 0 1 -2 3.5 6.92 6.92 0 0 1 -1 -3.5" fill="none" stroke="#fff" stroke-linecap="round" stroke-linejoin="round" stroke-width="1"></path></g></svg>
